<svg width="71" height="75" viewBox="0 0 71 75" fill="none" xmlns="http://www.w3.org/2000/svg">
<path d="M34.8633 11.6937L34.3086 6.18416L38.7461 4.34766" stroke="#9C4D4D" stroke-width="2" stroke-linecap="round" stroke-linejoin="round"/>
<path fill-rule="evenodd" clip-rule="evenodd" d="M35.418 59.4411C49.5099 59.4411 60.9336 48.0283 60.9336 33.95C60.9336 26.9108 58.0777 20.538 53.4602 15.925C51.11 13.577 48.3033 11.6849 45.1846 10.3929C42.1762 9.14669 38.8775 10.4581 35.418 10.4581C31.9584 10.4581 28.6597 9.14669 25.6513 10.3929C22.5326 11.6849 19.726 13.577 17.3757 15.925C12.7583 20.538 9.90234 26.9108 9.90234 33.95C9.90234 48.0283 21.3261 59.4411 35.418 59.4411Z" fill="#ED9111"/>
<path d="M29.872 15.3672C29.872 15.3672 18.2236 29.141 30.4267 50.2608" stroke="#FFDD95" stroke-width="2" stroke-linecap="round" stroke-linejoin="round"/>
<path d="M39.3018 15.3672C39.3018 15.3672 50.9502 29.141 38.7471 50.2608" stroke="#FFDD95" stroke-width="2" stroke-linecap="round" stroke-linejoin="round"/>
</svg>
