<svg width="1194" height="834" viewBox="0 0 1194 834" fill="none" xmlns="http://www.w3.org/2000/svg">
<path d="M-976.028 -738.767C-976.028 -738.767 -208.816 -454.136 -48.5522 -289.91C111.711 -125.683 -106.649 116.759 64.9256 157.879C236.5 199 273.5 342.5 423 324C572.5 305.5 493.5 501 653.5 518C813.5 535 737.812 682.375 964.812 664.875C1191.81 647.375 1744.6 1361.41 1691.75 1492.67" stroke="#F4D6AD" stroke-width="50"/>
<rect width="20" height="5" rx="2.5" transform="matrix(0.965702 0.259653 0.259653 -0.965702 855 661.828)" fill="white"/>
<rect width="20" height="5" rx="2.5" transform="matrix(0.965702 0.259653 0.259653 -0.965702 855 661.828)" fill="white"/>
<rect width="20" height="5" rx="2.5" transform="matrix(0.965702 0.259653 0.259653 -0.965702 855 661.828)" fill="white"/>
<rect width="20" height="5" rx="2.5" transform="matrix(0.965702 0.259653 0.259653 -0.965702 855 661.828)" fill="white"/>
<rect width="20" height="5" rx="2.5" transform="matrix(0.815581 0.578644 0.578644 -0.815581 1149 739.078)" fill="white"/>
<rect width="20" height="5" rx="2.5" transform="matrix(0.815581 0.578644 0.578644 -0.815581 1149 739.078)" fill="white"/>
<rect width="20" height="5" rx="2.5" transform="matrix(0.815581 0.578644 0.578644 -0.815581 1149 739.078)" fill="white"/>
<rect width="20" height="5" rx="2.5" transform="matrix(0.815581 0.578644 0.578644 -0.815581 1149 739.078)" fill="white"/>
<rect width="20" height="5" rx="2.5" transform="matrix(0.815581 0.578644 0.578644 -0.815581 1172 757.078)" fill="white"/>
<rect width="20" height="5" rx="2.5" transform="matrix(0.815581 0.578644 0.578644 -0.815581 1172 757.078)" fill="white"/>
<rect width="20" height="5" rx="2.5" transform="matrix(0.815581 0.578644 0.578644 -0.815581 1172 757.078)" fill="white"/>
<rect width="20" height="5" rx="2.5" transform="matrix(0.815581 0.578644 0.578644 -0.815581 1172 757.078)" fill="white"/>
<rect width="20" height="5" rx="2.5" transform="matrix(0.891862 0.452308 0.452308 -0.891862 829 647.461)" fill="white"/>
<rect width="20" height="5" rx="2.5" transform="matrix(0.891862 0.452308 0.452308 -0.891862 829 647.461)" fill="white"/>
<rect width="20" height="5" rx="2.5" transform="matrix(0.891862 0.452308 0.452308 -0.891862 829 647.461)" fill="white"/>
<rect width="20" height="5" rx="2.5" transform="matrix(0.891862 0.452308 0.452308 -0.891862 829 647.461)" fill="white"/>
<rect width="20" height="5" rx="2.5" transform="matrix(0.819535 0.573029 0.573029 -0.819535 802 630.098)" fill="white"/>
<rect width="20" height="5" rx="2.5" transform="matrix(0.819535 0.573029 0.573029 -0.819535 802 630.098)" fill="white"/>
<rect width="20" height="5" rx="2.5" transform="matrix(0.819535 0.573029 0.573029 -0.819535 802 630.098)" fill="white"/>
<rect width="20" height="5" rx="2.5" transform="matrix(0.819535 0.573029 0.573029 -0.819535 802 630.098)" fill="white"/>
<rect width="20" height="5" rx="2.5" transform="matrix(0.698909 0.71521 0.71521 -0.698909 784 610.496)" fill="white"/>
<rect width="20" height="5" rx="2.5" transform="matrix(0.698909 0.71521 0.71521 -0.698909 784 610.496)" fill="white"/>
<rect width="20" height="5" rx="2.5" transform="matrix(0.698909 0.71521 0.71521 -0.698909 784 610.496)" fill="white"/>
<rect width="20" height="5" rx="2.5" transform="matrix(0.698909 0.71521 0.71521 -0.698909 784 610.496)" fill="white"/>
<rect width="20" height="5" rx="2.5" transform="matrix(0.940121 0.340841 0.340841 -0.940121 628.945 517.059)" fill="white"/>
<rect width="20" height="5" rx="2.5" transform="matrix(0.940121 0.340841 0.340841 -0.940121 628.945 517.059)" fill="white"/>
<rect width="20" height="5" rx="2.5" transform="matrix(0.940121 0.340841 0.340841 -0.940121 628.945 517.059)" fill="white"/>
<rect width="20" height="5" rx="2.5" transform="matrix(0.940121 0.340841 0.340841 -0.940121 628.945 517.059)" fill="white"/>
<rect width="20" height="5" rx="2.5" transform="matrix(0.888803 0.458289 0.458289 -0.888803 602.043 503.297)" fill="white"/>
<rect width="20" height="5" rx="2.5" transform="matrix(0.888803 0.458289 0.458289 -0.888803 602.043 503.297)" fill="white"/>
<rect width="20" height="5" rx="2.5" transform="matrix(0.888803 0.458289 0.458289 -0.888803 602.043 503.297)" fill="white"/>
<rect width="20" height="5" rx="2.5" transform="matrix(0.888803 0.458289 0.458289 -0.888803 602.043 503.297)" fill="white"/>
<rect width="20" height="5" rx="2.5" transform="matrix(0.749485 0.662021 0.662021 -0.749485 578.357 484.242)" fill="white"/>
<rect width="20" height="5" rx="2.5" transform="matrix(0.749485 0.662021 0.662021 -0.749485 578.357 484.242)" fill="white"/>
<rect width="20" height="5" rx="2.5" transform="matrix(0.749485 0.662021 0.662021 -0.749485 578.357 484.242)" fill="white"/>
<rect width="20" height="5" rx="2.5" transform="matrix(0.749485 0.662021 0.662021 -0.749485 578.357 484.242)" fill="white"/>
<rect width="20" height="5" rx="2.5" transform="matrix(0.954217 0.299114 0.299114 -0.954217 464 331.77)" fill="white"/>
<rect width="20" height="5" rx="2.5" transform="matrix(0.954217 0.299114 0.299114 -0.954217 464 331.77)" fill="white"/>
<rect width="20" height="5" rx="2.5" transform="matrix(0.954217 0.299114 0.299114 -0.954217 464 331.77)" fill="white"/>
<rect width="20" height="5" rx="2.5" transform="matrix(0.954217 0.299114 0.299114 -0.954217 464 331.77)" fill="white"/>
<rect width="20" height="5" rx="2.5" transform="matrix(0.999977 -0.00682871 -0.00682871 -0.999977 436.033 330.137)" fill="white"/>
<rect width="20" height="5" rx="2.5" transform="matrix(0.999977 -0.00682871 -0.00682871 -0.999977 436.033 330.137)" fill="white"/>
<rect width="20" height="5" rx="2.5" transform="matrix(0.999977 -0.00682871 -0.00682871 -0.999977 436.033 330.137)" fill="white"/>
<rect width="20" height="5" rx="2.5" transform="matrix(0.999977 -0.00682871 -0.00682871 -0.999977 436.033 330.137)" fill="white"/>
<rect width="20" height="5" rx="2.5" transform="matrix(0.998309 0.0581374 0.0581374 -0.998309 405 328.992)" fill="white"/>
<rect width="20" height="5" rx="2.5" transform="matrix(0.998309 0.0581374 0.0581374 -0.998309 405 328.992)" fill="white"/>
<rect width="20" height="5" rx="2.5" transform="matrix(0.998309 0.0581374 0.0581374 -0.998309 405 328.992)" fill="white"/>
<rect width="20" height="5" rx="2.5" transform="matrix(0.998309 0.0581374 0.0581374 -0.998309 405 328.992)" fill="white"/>
<rect width="20" height="5" rx="2.5" transform="matrix(0.996858 0.0792087 0.0792087 -0.996858 374 325.984)" fill="white"/>
<rect width="20" height="5" rx="2.5" transform="matrix(0.996858 0.0792087 0.0792087 -0.996858 374 325.984)" fill="white"/>
<rect width="20" height="5" rx="2.5" transform="matrix(0.996858 0.0792087 0.0792087 -0.996858 374 325.984)" fill="white"/>
<rect width="20" height="5" rx="2.5" transform="matrix(0.996858 0.0792087 0.0792087 -0.996858 374 325.984)" fill="white"/>
<rect width="20" height="5" rx="2.5" transform="matrix(0.840616 0.541631 0.541631 -0.840616 212 234.203)" fill="white"/>
<rect width="20" height="5" rx="2.5" transform="matrix(0.840616 0.541631 0.541631 -0.840616 212 234.203)" fill="white"/>
<rect width="20" height="5" rx="2.5" transform="matrix(0.840616 0.541631 0.541631 -0.840616 212 234.203)" fill="white"/>
<rect width="20" height="5" rx="2.5" transform="matrix(0.840616 0.541631 0.541631 -0.840616 212 234.203)" fill="white"/>
<rect width="20" height="5" rx="2.5" transform="matrix(0.840616 0.541631 0.541631 -0.840616 165 202.203)" fill="white"/>
<rect width="20" height="5" rx="2.5" transform="matrix(0.840616 0.541631 0.541631 -0.840616 165 202.203)" fill="white"/>
<rect width="20" height="5" rx="2.5" transform="matrix(0.840616 0.541631 0.541631 -0.840616 165 202.203)" fill="white"/>
<rect width="20" height="5" rx="2.5" transform="matrix(0.840616 0.541631 0.541631 -0.840616 165 202.203)" fill="white"/>
<rect width="20" height="5" rx="2.5" transform="matrix(0.840616 0.541631 0.541631 -0.840616 189 219.203)" fill="white"/>
<rect width="20" height="5" rx="2.5" transform="matrix(0.840616 0.541631 0.541631 -0.840616 189 219.203)" fill="white"/>
<rect width="20" height="5" rx="2.5" transform="matrix(0.840616 0.541631 0.541631 -0.840616 189 219.203)" fill="white"/>
<rect width="20" height="5" rx="2.5" transform="matrix(0.840616 0.541631 0.541631 -0.840616 189 219.203)" fill="white"/>
<rect width="20" height="5" rx="2.5" transform="matrix(0.840616 0.541631 0.541631 -0.840616 23 139.203)" fill="white"/>
<rect width="20" height="5" rx="2.5" transform="matrix(0.840616 0.541631 0.541631 -0.840616 23 139.203)" fill="white"/>
<rect width="20" height="5" rx="2.5" transform="matrix(0.840616 0.541631 0.541631 -0.840616 23 139.203)" fill="white"/>
<rect width="20" height="5" rx="2.5" transform="matrix(0.840616 0.541631 0.541631 -0.840616 23 139.203)" fill="white"/>
<rect width="20" height="5" rx="2.5" transform="matrix(0.353616 0.935391 0.935391 -0.353616 11 108.77)" fill="white"/>
<rect width="20" height="5" rx="2.5" transform="matrix(0.353616 0.935391 0.935391 -0.353616 11 108.77)" fill="white"/>
<rect width="20" height="5" rx="2.5" transform="matrix(0.353616 0.935391 0.935391 -0.353616 11 108.77)" fill="white"/>
<rect width="20" height="5" rx="2.5" transform="matrix(0.353616 0.935391 0.935391 -0.353616 11 108.77)" fill="white"/>
<rect width="20" height="5" rx="2.5" transform="matrix(0.0910986 0.995842 0.995842 -0.0910986 7 75.457)" fill="white"/>
<rect width="20" height="5" rx="2.5" transform="matrix(0.0910986 0.995842 0.995842 -0.0910986 7 75.457)" fill="white"/>
<rect width="20" height="5" rx="2.5" transform="matrix(0.0910986 0.995842 0.995842 -0.0910986 7 75.457)" fill="white"/>
<rect width="20" height="5" rx="2.5" transform="matrix(0.0910986 0.995842 0.995842 -0.0910986 7 75.457)" fill="white"/>
<rect width="20" height="5" rx="2.5" transform="matrix(0.0910986 0.995842 0.995842 -0.0910986 4 41.457)" fill="white"/>
<rect width="20" height="5" rx="2.5" transform="matrix(0.0910986 0.995842 0.995842 -0.0910986 4 41.457)" fill="white"/>
<rect width="20" height="5" rx="2.5" transform="matrix(0.0910986 0.995842 0.995842 -0.0910986 4 41.457)" fill="white"/>
<rect width="20" height="5" rx="2.5" transform="matrix(0.0910986 0.995842 0.995842 -0.0910986 4 41.457)" fill="white"/>
<rect width="20" height="5" rx="2.5" transform="matrix(0.698909 0.71521 0.71521 -0.698909 766 591.496)" fill="white"/>
<rect width="20" height="5" rx="2.5" transform="matrix(0.698909 0.71521 0.71521 -0.698909 766 591.496)" fill="white"/>
<rect width="20" height="5" rx="2.5" transform="matrix(0.698909 0.71521 0.71521 -0.698909 766 591.496)" fill="white"/>
<rect width="20" height="5" rx="2.5" transform="matrix(0.698909 0.71521 0.71521 -0.698909 766 591.496)" fill="white"/>
<rect width="20" height="5" rx="2.5" transform="matrix(0.840616 0.541631 0.541631 -0.840616 212 234.203)" fill="white"/>
<rect width="20" height="5" rx="2.5" transform="matrix(0.840616 0.541631 0.541631 -0.840616 212 234.203)" fill="white"/>
<rect width="20" height="5" rx="2.5" transform="matrix(0.840616 0.541631 0.541631 -0.840616 212 234.203)" fill="white"/>
<rect width="20" height="5" rx="2.5" transform="matrix(0.840616 0.541631 0.541631 -0.840616 212 234.203)" fill="white"/>
<rect width="20" height="5" rx="2.5" transform="matrix(0.840616 0.541631 0.541631 -0.840616 165 202.203)" fill="white"/>
<rect width="20" height="5" rx="2.5" transform="matrix(0.840616 0.541631 0.541631 -0.840616 165 202.203)" fill="white"/>
<rect width="20" height="5" rx="2.5" transform="matrix(0.840616 0.541631 0.541631 -0.840616 165 202.203)" fill="white"/>
<rect width="20" height="5" rx="2.5" transform="matrix(0.840616 0.541631 0.541631 -0.840616 165 202.203)" fill="white"/>
<rect width="20" height="5" rx="2.5" transform="matrix(0.840616 0.541631 0.541631 -0.840616 189 219.203)" fill="white"/>
<rect width="20" height="5" rx="2.5" transform="matrix(0.840616 0.541631 0.541631 -0.840616 189 219.203)" fill="white"/>
<rect width="20" height="5" rx="2.5" transform="matrix(0.840616 0.541631 0.541631 -0.840616 189 219.203)" fill="white"/>
<rect width="20" height="5" rx="2.5" transform="matrix(0.840616 0.541631 0.541631 -0.840616 189 219.203)" fill="white"/>
</svg>
