<svg width="302" height="348" viewBox="0 0 302 348" fill="none" xmlns="http://www.w3.org/2000/svg">
<rect x="251.908" y="71.0195" width="7.49033" height="14.425" fill="#A04914" stroke="#E1E1E1" stroke-width="0.5"/>
<rect x="251.908" y="100.871" width="7.49033" height="14.425" fill="#A04914" stroke="#E1E1E1" stroke-width="0.5"/>
<rect x="215.953" y="71.0195" width="7.49033" height="14.425" fill="#A04914" stroke="#E1E1E1" stroke-width="0.5"/>
<rect x="215.953" y="100.871" width="7.49033" height="14.425" fill="#A04914" stroke="#E1E1E1" stroke-width="0.5"/>
<rect x="223.941" y="71.0195" width="27.4662" height="14.425" fill="#A04914" stroke="#E1E1E1" stroke-width="0.5"/>
<rect x="223.941" y="100.871" width="27.4662" height="14.425" fill="#A04914" stroke="#E1E1E1" stroke-width="0.5"/>
<rect x="237.924" y="85.9414" width="21.4734" height="14.425" fill="#A04914" stroke="#E1E1E1" stroke-width="0.5"/>
<rect x="237.924" y="115.793" width="21.4734" height="14.425" fill="#A04914" stroke="#E1E1E1" stroke-width="0.5"/>
<rect x="215.953" y="85.9414" width="21.4734" height="14.425" fill="#A04914" stroke="#E1E1E1" stroke-width="0.5"/>
<rect x="215.953" y="115.793" width="21.4734" height="14.425" fill="#A04914" stroke="#E1E1E1" stroke-width="0.5"/>
<rect x="211.957" y="44.1523" width="51.4372" height="26.365" fill="#A04914" stroke="#517B8F" stroke-width="0.5"/>
<rect x="209.709" y="130.465" width="55.9323" height="5.97001" fill="#A04914"/>
<rect x="26.3949" y="164.338" width="149.707" height="38.8285" fill="#803A0F" fill-opacity="0.99" stroke="#E1E1E1" stroke-width="0.2"/>
<rect x="133.973" y="203.37" width="149.707" height="42.0809" fill="#A04914" stroke="#E1E1E1" stroke-width="0.2"/>
<rect x="105.756" y="245.655" width="151.47" height="33.9499" fill="#803A0F" fill-opacity="0.99" stroke="#E1E1E1" stroke-width="0.2"/>
<rect x="195.702" y="279.803" width="87.9805" height="33.9499" fill="#803A0F" fill-opacity="0.99" stroke="#E1E1E1" stroke-width="0.2"/>
<path d="M213.336 313.948H283.681V345.998C283.681 347.047 282.83 347.898 281.781 347.898H213.336V313.948Z" fill="#A04914" stroke="#E1E1E1" stroke-width="0.2"/>
<rect x="26.3949" y="245.655" width="79.1624" height="33.9499" fill="#A04914" stroke="#E1E1E1" stroke-width="0.2"/>
<path d="M26.3949 313.948H105.557V347.898H28.2949C27.2456 347.898 26.3949 347.047 26.3949 345.998V313.948Z" fill="#803A0F" fill-opacity="0.99" stroke="#E1E1E1" stroke-width="0.2"/>
<rect x="26.3949" y="203.37" width="107.38" height="42.0809" fill="#A04914" stroke="#E1E1E1" stroke-width="0.2"/>
<rect x="176.301" y="164.338" width="107.38" height="38.8285" fill="#A04914" stroke="#E1E1E1" stroke-width="0.2"/>
<rect x="142.791" y="126.94" width="66.8172" height="37.2023" fill="#A04914" stroke="#E1E1E1" stroke-width="0.2"/>
<path d="M44.1383 126.741L75.3244 87.9125H110.847V126.741H44.1383Z" fill="#A04914" stroke="#E1E1E1" stroke-width="0.2"/>
<path d="M176.301 87.9125H231.254L243.083 126.741H176.301V87.9125Z" fill="#A04914" stroke="#E1E1E1" stroke-width="0.2"/>
<rect x="111.047" y="87.9125" width="65.0535" height="38.8285" fill="#A04914" stroke="#E1E1E1" stroke-width="0.2"/>
<path d="M116.429 51.9351L142.233 14.7328H162.659L183.086 51.9351H116.429Z" fill="#A04914" stroke="#E1E1E1" stroke-width="0.2"/>
<path d="M77.6585 87.7086L109.913 50.5063H144.357V87.7086H77.6585Z" fill="#A04914" stroke="#E1E1E1" stroke-width="0.2"/>
<path d="M142.791 50.5063H193.429L209.556 87.7086H142.791V50.5063Z" fill="#A04914" stroke="#E1E1E1" stroke-width="0.2"/>
<rect x="111.047" y="87.9125" width="65.0535" height="38.8285" fill="#A04914" stroke="#E1E1E1" stroke-width="0.2"/>
<path d="M209.809 126.94H267.667L278.357 164.142H209.809V126.94Z" fill="#A04914" stroke="#E1E1E1" stroke-width="0.2"/>
<path d="M38.5454 127.898C38.5504 127.894 38.5647 127.884 38.5951 127.871C38.6242 127.858 38.6628 127.845 38.712 127.831C38.8102 127.804 38.9431 127.776 39.1098 127.75C39.4429 127.696 39.9023 127.646 40.4711 127.599C41.6081 127.505 43.1747 127.424 45.0258 127.355C48.7278 127.217 53.5629 127.124 58.365 127.063C63.167 127.001 67.9352 126.971 71.5029 126.955C73.2868 126.948 74.7705 126.944 75.8083 126.942C76.3272 126.941 76.7345 126.94 77.0122 126.94L77.3291 126.94L77.3378 126.94V164.142H29.944L30.0034 163.865C30.0592 163.605 30.1411 163.224 30.2457 162.739C30.4549 161.768 30.7551 160.38 31.1186 158.712C31.8457 155.374 32.8264 150.915 33.8409 146.424C34.8555 141.934 35.9037 137.413 36.7658 133.954C37.1969 132.224 37.5812 130.761 37.8914 129.7C38.0465 129.169 38.1826 128.74 38.2964 128.43C38.3534 128.274 38.4041 128.15 38.4482 128.058C38.4944 127.962 38.5275 127.914 38.5454 127.898Z" fill="#A04914" stroke="#E1E1E1" stroke-width="0.2"/>
<rect x="75.7758" y="126.94" width="66.8172" height="37.2023" fill="#A04914" stroke="#E1E1E1" stroke-width="0.2"/>
<rect x="257.426" y="245.655" width="26.2541" height="33.9499" fill="#A04914" stroke="#E1E1E1" stroke-width="0.2"/>
<rect x="88.1195" y="279.803" width="107.38" height="33.9499" fill="#A04914" stroke="#E1E1E1" stroke-width="0.2"/>
<rect x="105.756" y="313.948" width="107.38" height="33.9499" fill="#A04914" stroke="#E1E1E1" stroke-width="0.2"/>
<rect x="26.3949" y="279.803" width="61.5263" height="33.9499" fill="#803A0F" fill-opacity="0.99" stroke="#E1E1E1" stroke-width="0.2"/>
<rect x="127.193" y="245.371" width="64.5373" height="102.593" fill="#BB8442"/>
<rect x="133.646" y="263.473" width="21.5124" height="14.0814" fill="#BB8442"/>
<rect x="133.896" y="263.723" width="21.0124" height="13.5814" stroke="black" stroke-opacity="0.3" stroke-width="0.5"/>
<rect x="135.797" y="265.488" width="17.2099" height="10.0582" fill="#BB8442"/>
<rect x="136.047" y="265.738" width="16.7099" height="9.55817" stroke="black" stroke-opacity="0.3" stroke-width="0.5"/>
<rect x="163.764" y="263.473" width="21.5124" height="14.0814" fill="#BB8442"/>
<rect x="164.014" y="263.723" width="21.0124" height="13.5814" stroke="black" stroke-opacity="0.3" stroke-width="0.5"/>
<rect x="165.916" y="265.488" width="17.2099" height="10.0582" fill="#BB8442"/>
<rect x="166.166" y="265.738" width="16.7099" height="9.55817" stroke="black" stroke-opacity="0.3" stroke-width="0.5"/>
<path d="M183.304 301.281C185.779 301.281 187.786 299.573 187.786 297.467C187.786 295.36 185.779 293.652 183.304 293.652C180.829 293.652 178.822 295.36 178.822 297.467C178.822 299.573 180.829 301.281 183.304 301.281Z" fill="black"/>
<path d="M184.56 310.922H182.767C181.777 310.922 180.975 310.084 180.975 309.05V297.536C180.975 296.502 181.777 295.664 182.767 295.664H184.56C185.55 295.664 186.353 296.502 186.353 297.536V309.05C186.353 310.084 185.55 310.922 184.56 310.922Z" fill="black"/>
<rect x="137.949" y="315.781" width="43.0249" height="28.1629" fill="#BB8442"/>
<rect x="138.199" y="316.031" width="42.5249" height="27.6629" stroke="black" stroke-opacity="0.3" stroke-width="0.5"/>
<rect x="142.25" y="319.801" width="34.4199" height="20.1163" fill="#BB8442"/>
<rect x="142.5" y="320.051" width="33.9199" height="19.6163" stroke="black" stroke-opacity="0.3" stroke-width="0.5"/>
<rect width="6.45373" height="102.593" transform="matrix(-1 0 0 1 198.188 245.371)" fill="#C0C2C3"/>
<rect width="6.45373" height="108.628" transform="matrix(-1 0 0 1 127.193 239.336)" fill="#C0C2C3"/>
<rect width="6.0349" height="70.991" transform="matrix(0 -1 -1 0 198.188 245.371)" fill="#C0C2C3"/>
<path d="M294.174 165.515C296.49 161.802 296.021 157.002 293.032 153.82L156.537 8.55687C153.239 5.04717 147.708 4.89696 144.206 8.22198C140.753 11.5008 140.565 16.9375 143.784 20.429L278.901 166.975C283.211 171.65 290.801 170.925 294.174 165.515Z" fill="#642F0F"/>
<path d="M12.9693 166.826C10.6039 163.273 10.8838 158.598 13.6541 155.39L141.596 7.19949C144.717 3.58456 150.219 3.25573 153.798 6.47019C157.258 9.57672 157.637 14.8511 154.654 18.3732L28.123 167.771C24.0543 172.575 16.4822 172.103 12.9693 166.826Z" fill="#642F0F"/>
<rect x="188.432" y="165.91" width="66.8398" height="56.3374" fill="#B3CAE4" stroke="#8D898A" stroke-width="2"/>
<line x1="220.199" y1="168.34" x2="220.199" y2="219.814" stroke="#8D898A"/>
<line x1="191.732" y1="195.297" x2="251.967" y2="195.297" stroke="#8D898A"/>
<rect x="55.0547" y="165.91" width="66.8398" height="56.3374" fill="#B3CAE4" stroke="#8D898A" stroke-width="2"/>
<line x1="86.918" y1="167.496" x2="86.918" y2="221.16" stroke="#8D898A"/>
<line x1="58.3555" y1="195.297" x2="118.59" y2="195.297" stroke="#8D898A"/>
</svg>
